<svg xmlns="http://www.w3.org/2000/svg" version="1.1" xmlns:xlink="http://www.w3.org/1999/xlink" viewBox="0 0 1422 800" style="overflow: hidden; display: block;" width="1422" height="800"><defs></defs><g id="two-0" transform="matrix(1 0 0 1 0 0)" opacity="1"></g><path d="M 261.5787516011111 222.45308665600808 Q 261.5787516011111 222.45308665600808 270.01291802402807 220.13210188319823 278.4470844469451 217.81111711038835 322.75014112106453 201.52817459488486 367.0531977951839 185.24523207938137 390.6393397330054 175.38163225598242 414.2254816708269 165.51803243258345 433.2451615420879 156.73803238046625 452.26484141334885 147.95803232834905 452.91206853881755 147.80201392824114 453.55929566428625 147.6459955281332 453.9134161572189 147.52917898291267 454.26753665015156 147.41236243769214 454.6393232948363 147.3836898098707 455.011109939521 147.3550171820493 455.37895447870045 147.41615492610313 455.7467990178799 147.47729267015697 456.08932230965377 147.62468745752915 456.4318456014277 147.7720822449013 456.7291401759848 147.99716748362437 457.0264347505419 148.22225272234746 457.2612218332406 148.51194644777132 457.49600891593934 148.80164017319515 457.6546426705018 149.1391053723869 457.81327642506426 149.47657057157866 457.88653705022193 149.8421937513056 457.95979767537955 150.2078169310325 457.9434272601561 150.58034805491013 457.9270568449326 150.95287917878778 457.82200683863005 151.31066672039304 457.7169568323274 151.6684542619983 457.5293327462477 151.99070359260253 457.34170866016797 152.31295292320678 457.08241521500963 152.58093489657443 456.82312176985124 152.84891686994206 456.5072291128297 153.04705636118993 456.1913364558081 153.2451958524378 457.0787719869211 162.03619380044472 457.966207518034 170.82719174845164 454.31658760646656 187.5911276576299 450.6669676948991 204.35506356680816 444.90588417882907 229.89586956748144 439.144800662759 255.43667556815473 433.4382783466382 283.226781223286 427.7317560305173 311.0168868784173 416.48161551669784 341.2674240993816 405.23147500287837 371.51796132034593 394.01029000908596 399.4051353417167 382.78910501529356 427.2923093630875 373.80902993853294 449.61024698610447 364.82895486177233 471.92818460912144 358.65542279305987 488.6474514649615 352.48189072434747 505.3667183208015 348.19356582354817 515.2171162265988 343.9052409227488 525.0675141323961 330.8969114672807 528.3056251121062 317.8885820118126 531.5437360918163 309.6993008930185 528.0691414060361 301.51001977422436 524.5945467202558 311.4688623100434 495.6708658055443 321.4277048458625 466.74718489083267 354.0278971349013 418.853335881602 386.6280894239402 370.9594868723714 417.02543043628543 335.1829994516859 447.4227714486306 299.4065120310003 475.4844026467365 270.40142948840605 503.5460338448424 241.39634694581173 523.7682416865885 221.31490654315593 543.9904495283346 201.23346614050013 560.8203581936156 185.6154166259954 577.6502668588965 169.99736711149066 588.2535853206582 158.37447910516823 598.85690378242 146.75159109884584 604.4396646730131 139.5672172199209 610.0224255636061 132.382843340996 616.5998378538686 126.50506662180354 623.177250144131 120.62728990261108 623.6972375388402 120.5365887449197 624.2172249335493 120.44588758722833 624.7389528271196 120.5259725154836 625.2606807206901 120.60605744373889 625.729524064942 120.84854354481212 626.1983674091939 121.09102964588536 626.5652381822216 121.47052856098406 626.9321089552493 121.85002747608277 627.1585956902723 122.32680556861814 627.3850824252952 122.80358366115351 627.4474719013698 123.32772213897988 627.5098613774444 123.85186061680625 627.4016213999564 124.3684820429361 627.2933814224685 124.88510346906594 627.0258447456337 125.34011744380864 626.7583080687988 125.79513141855134 626.3594858533044 126.1408978586393 625.96066363781 126.48666429872729 625.472312674897 126.68698136660986 624.9839617119841 126.88729843449242 624.4572124763819 126.92119288028371 623.9304632407797 126.95508732607499 623.4204665165039 126.81901039235336 622.9104697922282 126.68293345863175 622.4706223709368 126.39113243627871 622.0307749496454 126.09933141392567 621.7071289724558 125.68235794700956 621.3834829952663 125.26538448009345 621.2099242814247 124.76689580067068 621.0363655675831 124.26840712124792 621.0310657602436 123.7405951256423 621.0257659529041 123.2127831300367 621.1892799432942 122.71090987351698 621.3527939336843 122.20903661699725 621.6680017638466 121.78564836200272 621.983209594009 121.36226010700817 622.417108920919 121.06168571560038 622.8510082478289 120.76111132419258 623.3581696974204 120.61482101449587 623.8653311470121 120.46853070479915 624.3926547816354 120.49184111085566 624.9199784162589 120.51515151691216 625.4122533121692 120.70562203305441 625.9045282080796 120.89609254919667 626.310213053727 121.23378086210525 626.7158978993745 121.57146917501383 626.9925173843293 122.02101922918615 627.2691368692841 122.47056928335849 627.3877288604511 122.98491306945301 627.5063208516182 123.49925685554754 627.454468736217 124.02454244338661 627.4026166208157 124.54982803122567 627.1857493290164 125.0310578811006 626.9688820372171 125.51228773097552 626.6097056317185 125.89907695057205 626.2505292262198 126.28586617016859 625.7866495714909 126.53771782609255 625.3227699167621 126.7895694820165 625.323232087734 126.78940856803234 625.3236942587059 126.7892476540482 619.5752929228856 131.05597643384044 613.8268915870652 135.3227052136327 608.1792838717354 142.70215348230084 602.5316761564056 150.081601750969 591.8563530493432 161.92849373922542 581.1810299422806 173.77538572748185 564.520356234392 189.4381791169542 547.8596825265034 205.1009725064265 527.8298395725769 225.29118442425658 507.7999966186505 245.48139634208667 480.10243673865665 274.54156662032835 452.4048768586628 303.60173689857 422.5891181209993 339.3525597775757 392.7733593833358 375.1033826565815 361.1455383010548 422.5835064625941 329.51771721877384 470.0636302686066 323.7331173870237 496.37817081142055 317.94851755527355 522.6927113542345 328.2579319269536 522.5486040316489 338.56734629863365 522.4044967090633 343.28043041976593 513.0612604632202 347.9935145408983 503.718024217377 354.1263036568653 486.9091705994414 360.25909277283233 470.1003169815058 369.1476200612822 447.7463968929769 378.0361473497321 425.39247680444805 389.1025485347695 397.5210772104813 400.16894971980685 369.64967761651457 411.1125021485118 339.759757765368 422.05605457721674 309.8698379142215 427.4934023231342 281.9781275977857 432.9307500690516 254.08641728134995 438.2755686269919 228.51707724173653 443.62038718493227 202.9477372021231 446.60984722644537 186.46892660784553 449.59930726795847 169.99011601356796 451.57916149269494 158.81812158586808 453.5590157174314 147.6461271581682 453.913124526939 147.52927520148253 454.2672333364465 147.41242324479686 454.6390171120095 147.38371343845438 455.01080088757254 147.35500363211193 455.3786515386871 147.41610459140622 455.74650218980173 147.47720555070052 456.08904021934177 147.62456608500656 456.43157824888175 147.77192661931264 456.72889533047623 147.9969821274529 457.02621241207066 148.22203763559315 457.26102846296794 148.51170788086029 457.4958445138652 148.80137812612745 457.6545120141544 149.13882746025644 457.81317951444356 149.47627679438546 457.8864767015528 149.84189264622177 457.959773888662 150.20750849805808 457.94344072663273 150.58004125711457 457.9271075646035 150.95257401617107 457.8220933375802 151.31037206098802 457.71707911055694 151.66817010580493 457.5294872503484 151.9904381972065 457.3418953901398 152.31270628860804 457.0826287444752 152.58071418998026 456.82336209881055 152.84872209135247 456.5074892573175 153.0468931708753 456.1916164158245 153.24506425039812 455.41116840848684 153.2407760621873 454.6307204011492 153.23648787397647 435.68131547017225 162.30710098622413 416.7319105391953 171.37771409847178 393.1577048648112 181.68532388383187 369.5834991904271 191.99293366919193 325.3498555803592 208.90537621305657 281.1162119702912 225.8178187569212 272.9761886806838 229.02156893131593 264.8361653910764 232.22531910571067 264.2278199390388 232.34921739804514 263.61947448700124 232.4731156903796 262.9991558405886 232.44782235586143 262.37883719417607 232.4225290213433 261.7825983022635 232.2495141097632 261.1863594103509 232.07649919818306 260.6488537053505 231.76581834433105 260.1113480003501 231.45513749047905 259.66381533909106 231.02484748017832 259.216282677832 230.59455746987757 258.884733679614 230.06966677874388 258.5531846813959 229.5447760876102 258.356888989573 228.95579138727413 258.16059329775015 228.36680668693805 258.1109596271541 227.74795979585645 258.06132595655805 227.12911290477484 258.16123901845594 226.51637123333376 258.26115208035384 225.9036295618927 258.5048049228937 225.33260568482586 258.74845776543356 224.76158180775903 259.1216892739591 224.265463659631 259.49492078248454 223.76934551150296 259.9760387241839 223.37696750239292 260.4571566658833 222.9845894932829 261.0181984433798 222.71875665151617 261.5792402208763 222.45292380974945 261.5789959109937 222.45300523287875 Z" fill="hsl(0, 0%, 0%)"></path><path d="M 419.90850260506124 334.27743599017384 Q 419.90850260506124 334.27743599017384 427.10992300565374 333.96821842873504 434.3113434062463 333.65900086729624 445.657111890103 333.91479997455775 457.00288037395967 334.17059908181926 461.5965162857153 343.9058126800735 466.190152197471 353.6410262783277 463.1683597858926 364.54489569177156 460.14656737431426 375.44876510521544 451.21210641745785 394.0767859590811 442.27764546060143 412.70480681294674 434.63132168757545 425.05542664213147 426.9849979145495 437.40604647131624 417.73986610297607 448.10989732430426 408.49473429140255 458.81374817729227 402.3321466998807 468.05305836484104 396.1695591083589 477.29236855238975 402.63785712447225 484.2794428575139 409.10615514058566 491.26651716263814 420.4787394073277 490.0081698856869 431.85132367406976 488.74982260873577 442.3724476621774 486.7971083541147 452.8935716502851 484.84439409949357 462.22153578097056 481.7331011508019 471.549499911656 478.6218082021101 481.633980316463 475.38491807078236 491.71846072127 472.1480279394546 497.0614519057258 469.2533395456241 502.40444309018153 466.3586511517936 502.897878591998 466.20648951226536 503.39131409381446 466.05432787273713 503.90750511799797 466.0676914631671 504.4236961421815 466.0810550535971 504.90859735223876 466.2585447025396 505.3934985622961 466.43603435148214 505.79634067353277 466.75906684584015 506.1991827847694 467.0820993401982 506.4777881217989 467.51685309254026 506.7563934588284 467.95160684488224 506.8815919693192 468.45256302257417 507.00679047980987 468.9535192002661 506.9654738466642 469.468227559264 506.9241572135186 469.9829359182619 506.72065129913346 470.4575063575088 506.5171453847483 470.9320767967558 506.17275731208014 471.31682166598824 505.828369239412 471.7015665352207 505.3791565305788 471.9562029450673 504.9299438217456 472.2108393549138 504.4229391659428 472.30870680604596 503.91593451014006 472.40657425717814 503.4042214286665 472.33742600162793 502.892508347193 472.2682777460778 502.42966333475806 472.0393536244547 501.96681832232315 471.8104295028316 501.601301373908 471.44569793109963 501.23578442549285 471.08096635936766 501.00586526208366 470.61861482936695 500.77594609867447 470.1562632993662 500.70569731737294 469.6447001383367 500.6354485360714 469.1331369773073 500.73222520282366 468.6259229832485 500.82900186957596 468.11870898918966 501.0826714418265 467.6689496011709 501.3363410140771 467.21919021315216 501.72034422064905 466.87397535782395 502.104347427221 466.5287605024958 502.57847903101924 466.3242342663389 503.0526106348175 466.11970803018204 503.5672289317657 466.07728436411185 504.081847228714 466.0348606980416 504.58307154727584 466.1589813710943 505.0842958658376 466.283102044147 505.5196478875491 466.5607715890893 505.95499990926066 466.8384411340316 506.27889816252696 467.24058747621046 506.6027964157932 467.64273381838933 506.7813286679964 468.1272521296223 506.9598609201996 468.61177044085525 506.9743347974062 469.1279315260558 506.98880867461276 469.6440926112563 506.8377087580584 470.13785426855065 506.686608841504 470.631615925845 506.3857553323384 471.051281179374 506.08490182317286 471.47094643290296 505.6657941632234 471.77257621984126 505.24668650327385 472.07420600677955 505.2471151698912 472.073992838522 505.2475438365085 472.0737796702644 499.37063791737194 474.76064516902613 493.4937319982353 477.44751066778787 483.52795249913663 480.89698223963137 473.56217300003794 484.3464538114749 463.92590900579677 487.9026567322005 454.2896450115556 491.4588596529262 443.61873014684716 493.9541314143205 432.9478152821387 496.44940317571474 421.0219317859379 498.5056266880255 409.09604828973715 500.56185020033627 397.7931881529927 497.5920224939257 386.4903280162482 494.62219478751507 388.86048435078146 484.3572231047013 391.23064068531477 474.0922514218875 397.3737817655348 464.36720772925185 403.51692284575483 454.6421640366161 412.07424578069845 444.1427410863126 420.6315687156421 433.64331813600904 427.4907583339892 421.3737113227868 434.3499479523364 409.1041045095645 442.0271932099884 391.0990934298587 449.70443846764044 373.0940823501529 451.18115162681664 359.3478990343933 452.65786478599284 345.60171571863367 443.8782423030325 344.7620493964939 435.0986198200721 343.9223830743542 427.93572633211477 344.71810342490267 420.7728328441575 345.51382377545116 420.0942715976214 345.4839049074043 419.4157103510853 345.45398603935735 418.76402838755325 345.26254121082206 418.1123464240212 345.07109638228684 417.5254195298329 344.7292523756928 416.93849263564454 344.3874083690987 416.4504330294668 343.9150331741705 415.962373423289 343.44265797924226 415.6015471523643 342.8672060645036 415.24072088143953 342.2917541497649 415.0280991855873 341.64667080753793 414.81547748973503 341.00158746531093 414.7634179519082 340.3243649697549 414.7113584140814 339.6471424741989 414.82288673706455 338.9771410285748 414.9344150600476 338.30713958295064 415.2030492124687 337.68329970275795 415.4716833648898 337.05945982256526 415.8818103171885 336.5180391109518 416.2919372694872 335.9766183993383 416.8197204239261 335.5490842535016 417.3475035783651 335.12155010766486 417.9622681532105 334.8327508322485 418.5770327280559 334.5439515568321 419.2430485773331 334.41067217929253 419.90906442661037 334.2773928017529 419.9087835158358 334.2774143959634 Z" fill="hsl(0, 0%, 0%)"></path><path d="M 502.41436122466115 315.18160165957113 Q 502.41436122466115 315.18160165957113 508.6075070667026 312.6147111116924 514.8006529087442 310.04782056381356 523.8711344022154 308.88856205576985 532.9416158956866 307.7293035477262 541.5388948586248 311.27493828418255 550.1361738215629 314.82057302063896 559.1010779748201 323.503037543299 568.0659821280774 332.185502065959 569.5674892650659 349.621578730617 571.0689964020543 367.05765539527505 570.6897800192947 380.66412895615554 570.3105636365352 394.270602517036 570.0414851836507 408.19727773257273 569.7724067307662 422.12395294810943 564.180634969778 429.8249856591909 558.5888632087898 437.5260183702723 543.0332027664168 437.0139679513631 527.4775423240438 436.5019175324539 518.0098624918451 436.21176358166747 508.5421826596462 435.92160963088105 494.02626914664046 435.92918858425446 479.51035563363473 435.93676753762793 473.0570753077478 429.23061614166113 466.6037949818609 422.52446474569433 476.6443726781903 413.26820026734316 486.68495037451964 404.011935788992 505.7706131124198 392.13159855106875 524.85627585032 380.2512613131455 539.5566981394592 371.50918534510015 554.2571204285983 362.7671093770548 569.4494816264942 354.5230091778876 584.6418428243899 346.2789089787204 595.7583251084375 338.65718758977596 606.8748073924851 331.0354662008315 616.9272846614526 327.9416822979541 626.9797619304202 324.8478983950767 627.3526165926144 325.3533127481486 627.7254712548087 325.85872710122055 627.9174223952122 326.4567396655609 628.1093735356156 327.0547522299012 628.1003238191579 327.6827509321635 628.0912741027003 328.3107496344258 627.8821710370835 328.9029828447077 627.6730679714667 329.49521605498956 627.2858047028586 329.98967679984 626.8985414342505 330.48413754469055 626.3736645291021 330.8290556535989 625.8487876239537 331.1739737625073 625.2412518327881 331.33323621842123 624.6337160416223 331.4924986743352 624.0071305221481 331.44943065607936 623.3805450026741 331.4063626378235 622.8005134241831 331.16547337827814 622.2204818456921 330.92458411873275 621.7477336675656 330.5110947869608 621.2749854894392 330.09760545518884 620.9590175707206 329.55480849337744 620.6430496520019 329.01201153156603 620.5169439171882 328.39673792490134 620.3908381823746 327.7814643182366 620.4677979351898 327.1581333757528 620.5447576880049 326.534802433269 620.8167252220137 325.9686770691876 621.0886927560224 325.4025517051062 621.5271929986216 324.95290539448905 621.9656932412206 324.5032590838719 622.5248151012572 324.21716991413575 623.0839369612938 323.93108074439965 623.7051402324282 323.8385023271361 624.3263435035626 323.74592390987254 624.9445880393253 323.85654922980734 625.562832575088 323.9671745497422 626.1133880093839 324.26942110667596 626.6639434436798 324.5716676636098 627.0891664772057 325.03389016324627 627.5143895107315 325.49611266288275 627.7697591796291 326.06991628749506 628.0251288485267 326.6437199121073 628.0839078810516 327.2690272707291 628.1426869135763 327.8943346293509 627.9987211295067 328.50567587646935 627.8547553454372 329.1170171235878 627.5231180003686 329.6503846692512 627.1914806553001 330.1837522149146 626.706894266805 330.5833023362966 626.22230787831 330.98285245767863 625.6355087691821 331.20675215159963 625.0487096600543 331.4306518455206 624.4211358519194 331.4554587549232 623.7935620437845 331.4802656643258 623.1909206800176 331.3033824992473 622.5882793162506 331.12649933416867 622.07366710672 330.76644580868526 621.5590548971893 330.4063922832018 621.559471784234 330.4067988362323 621.5598886712787 330.40720538926286 615.828570706241 333.0288110039327 610.0972527412032 335.65041661860255 598.8591108865282 343.6401501951973 587.6209690318533 351.629883771792 572.7328184763153 360.1120079047839 557.8446679207772 368.5941320377759 543.4961718371818 377.7384819091098 529.1476757535864 386.88283178044367 510.55209194620693 399.3869600353219 491.9565081388274 411.8910882902002 485.73343188623085 420.36964694855175 479.5103556336343 428.8482056069033 494.02626914445347 428.8557845601762 508.54218265527265 428.863363513449 518.0098621708362 428.57320955092945 527.4775416863996 428.2830555884099 536.373587592351 427.8466193349159 545.2696334983025 427.4101830814218 554.0783239173206 424.7670879205082 562.8870143363387 422.1239927595946 562.6177748510144 408.20012355584555 562.34853536569 394.2762543520965 561.9503739900144 381.1939568337446 561.5522126143388 368.1116593153927 559.8471348948779 358.34392308759004 558.1420571754169 348.57618685978736 552.3686399000533 336.66650450194476 546.5952226246897 324.75682214410216 533.0883134987198 322.7802512021316 519.58140437275 320.803680260161 513.6201121502163 323.7615397885762 507.6588199276826 326.71939931699137 506.93040343339675 326.9493572212551 506.2019869391109 327.1793151255189 505.4397039991401 327.22826353009475 504.67742105916926 327.27721193467056 503.9255755938003 327.1423059559847 503.1737301284313 327.0073999772988 502.4760194314367 326.696480357171 501.7783087344422 326.3855607370432 501.17528378431314 325.9166981384037 500.5722588341841 325.44783553976424 500.0989674693551 324.8482802788755 499.62567610452606 324.24872501798677 499.30962604135846 323.5533232747816 498.9935759781908 322.8579215315764 498.8531360612054 322.10709008804315 498.71269614422005 321.3562586445099 498.7560287479906 320.59363585942447 498.7993613517612 319.83101307433895 499.0239479833207 319.1009226198021 499.2485346148801 318.3708321652652 499.64132228865003 317.7157069327978 500.0341099624199 317.0605817003304 500.5722698403457 316.5184975992243 501.1104297182715 315.97641349811823 501.7626839229629 315.57887648179957 502.4149381276542 315.1813394654809 502.41464967615764 315.181470562526 Z" fill="hsl(0, 0%, 0%)"></path><path d="M 645.4826449182498 290.7664575255402 Q 645.4826449182498 290.7664575255402 642.3576771897231 302.8384641513759 639.2327094611962 314.9104707772116 636.2103411886299 328.1884681078659 633.1879729160636 341.4664654385202 630.2454550293876 357.5157139406345 627.3029371427117 373.5649624427488 626.065778480229 384.03905409383356 624.8286198177464 394.5131457449183 632.7965153728082 398.06344544075216 640.7644109278702 401.6137451365861 650.081140335059 392.3841294798866 659.3978697422478 383.1545138231872 668.3349572639731 371.7876655202382 677.2720447856985 360.42081721728925 686.2093383084333 345.64434293083707 695.1466318311681 330.8678686443848 699.6103900847799 317.25255361880295 704.0741483383916 303.6372385932211 704.782807925646 297.4251012241675 705.4914675129003 291.21296385511386 705.6356999180857 290.8074502879987 705.7799323232712 290.4019367208835 706.0170221087554 290.0427255386535 706.2541118942397 289.6835143564235 706.5702793905507 289.39148292986727 706.8864468868618 289.09945150331106 707.2633164242591 288.8915727126612 707.6401859616562 288.6836939220113 708.055853864919 288.5720496923474 708.4715217681817 288.4604054626835 708.9018293992422 288.45148456187934 709.3321370303026 288.44256366107516 709.7520748894258 288.53688457230453 710.1720127485489 288.63120548353385 710.5571740276318 288.82328627100446 710.9423353067147 289.0153670584751 711.2703344141202 289.2940439777943 711.5983335215257 289.57272089711347 711.8501071337205 289.92179723263683 712.1018807459153 290.2708735681602 712.2627957687291 290.67006098686585 712.4237107915429 291.0692484055715 712.4844148362893 291.49534611592856 712.5451188810356 291.92144382628555 712.5020838257816 292.34968700934786 712.4590487705276 292.77793019241017 707.9860174859705 300.2761608786594 703.5129862014134 307.77439156490874 696.1016220791983 324.87264703577546 688.6902579569831 341.97090250664223 678.5646626996747 368.52481896038387 668.4390674423664 395.07873541412545 656.0799727974279 424.0486308885593 643.7208781524893 453.0185263629931 630.866562091926 488.5300925996946 618.0122460313627 524.0416588363962 612.2617436265716 534.976898010828 606.5112412217806 545.9121371852598 600.9438520276494 552.2517974591417 595.3764628335183 558.5914577330237 585.9163636404799 549.8262351120468 576.4562644474415 541.0610124910697 577.2400899342397 527.3715444184768 578.0239154210378 513.682076345884 587.8355256199695 493.08763815081807 597.6471358189011 472.49319995575223 616.8848994417633 449.9708820467357 636.1226630646255 427.4485641377192 661.9901534679263 407.2570257855738 687.8576438712271 387.0654874334284 688.2556977953441 386.8464297671354 688.6537517194612 386.6273721008425 689.1009150636341 386.5468852615786 689.5480784078072 386.46639842231474 689.9975330518616 386.5329094033974 690.446987695916 386.5994203844801 690.8516756199749 386.80596546863273 691.2563635440339 387.01251055278533 691.5739138156209 387.3374644151745 691.891464087208 387.66241827756375 692.088629109063 388.0717581630179 692.285794130918 388.481098048472 692.3419306732062 388.93196596292876 692.3980672154944 389.38283387738556 692.3072977674196 389.8280238311838 692.2165283193448 390.2732137849821 691.9883564660813 390.6661142724404 691.7601846128177 391.0590147598987 691.4185000076336 391.35848899626444 691.0768154024495 391.65796323263027 690.6573925137036 391.83265618630253 690.2379696249577 392.00734913997485 689.7847221398187 392.03897041258966 689.3314746546796 392.0705916852045 688.891857704487 391.9558305211719 688.4522407542945 391.8410693571393 688.0722823497813 391.59194128062745 687.6923239452682 391.3428132041156 687.4118058316861 390.98540199049876 687.1312877181041 390.6279907768819 686.9795802159948 390.19971747457316 686.8278727138855 389.7714441722644 686.8208596387667 389.3171491090686 686.813846563648 388.8628540458728 686.9522621863359 388.4301020348288 687.0906778090239 387.99735002378486 687.360029977285 387.63145031468446 687.6293821455461 387.26555060558405 688.0014696162611 387.00481299455816 688.3735570869763 386.7440753835323 688.8094222037402 386.6157991672834 689.245287320504 386.48752295103446 689.699294890534 386.5051386832654 690.1533024605642 386.52275441549637 690.5779177714321 386.6844177243925 691.0025330823 386.84608103328867 691.3532987988704 387.1348657277336 691.7040645154406 387.4236504221785 691.9442553745951 387.80932066843206 692.1844462337496 388.19499091468566 692.2889141891308 388.6371669361581 692.3933821445119 389.0793429576305 692.3511893736143 389.5317288081505 692.3089966027167 389.9841146586705 692.1245606997911 390.39934542027027 691.9401247968657 390.81457618187005 691.632756249635 391.1491770841999 691.3253877024043 391.4837779865298 691.3257190741983 391.48351790574054 691.3260504459922 391.48325782495124 666.0452853343338 411.44838901277683 640.7645202226755 431.41352020060236 622.2742898406918 453.4290691694908 603.7840594587082 475.4446181383792 594.8025050537553 494.845126071486 585.8209506488024 514.2456340045927 585.537857405385 526.0641892831945 585.2547641619676 537.8827445617965 593.6883251437564 540.7490497366234 602.1218861255453 543.6153549114504 607.6386696370258 532.9513468042596 613.1554531485064 522.2873386970689 625.9229916389716 486.5900034078621 638.6905301294368 450.8926681186553 650.8103493750284 421.9520063027428 662.93016862062 393.0113444868303 672.8161354500364 366.2356449232657 682.702102279453 339.4599453597011 694.0967457894374 315.3366288008506 705.4913892994216 291.2133122420001 705.6355811525293 290.807784253672 705.7797730056369 290.4022562653439 706.0168268688176 290.0430213759314 706.2538807319983 289.68378648651895 706.5700190235859 289.39172344467335 706.8861573151735 289.09966040282774 707.2630060628073 288.89174392626353 707.6398548104412 288.6838274496994 708.0555115472025 288.57214165380344 708.471168283964 288.46045585790756 708.9014750207829 288.45149192638496 709.3317817576018 288.4425279948623 709.7517290467163 288.5368069118342 710.1716763358309 288.63108582880614 710.5568568210666 288.82312809918847 710.9420373063024 289.01517036957085 711.2700642797597 289.29381448758596 711.5980912532171 289.57245860560107 711.8498997717866 289.9215097620179 712.1017082903561 290.27056091843474 712.2626632311071 290.6697322436422 712.4236181718582 291.06890356884963 712.4843648260719 291.4949952066717 712.5451114802858 291.9210868444938 712.5021192495651 292.3493343289204 712.4591270188446 292.777581813347 710.8620526534867 299.0433662206742 709.2649782881286 305.3091506280015 704.7376100424033 319.57279948399537 700.2102417966779 333.8364483399893 691.3166309569077 349.09221128453396 682.4230201171375 364.34797422907855 673.5111403875851 376.35424850376023 664.5992606580328 388.36052277844186 647.719984603434 399.87737734269353 630.8407085488352 411.3942319069452 625.0761155912361 402.760440484309 619.311522633637 394.1266490616728 620.3316024718307 383.33243816236404 621.3516823100244 372.53822726305526 623.9812440353135 356.3168082872294 626.6108057606026 340.0953893114035 629.160177940963 326.64803975720827 631.7095501213232 313.2006902030131 634.1093022109117 300.96385095787707 636.5090543005002 288.72701171274105 636.6962691294491 288.2049313431812 636.8834839583981 287.6828509736214 637.1902042297737 287.22074711128596 637.4969245011494 286.7586432489505 637.9053236183681 286.3833733920302 638.313722735587 286.00810353510985 638.8000645227678 285.7414783853209 639.2864063099485 285.47485323553195 639.8224245595694 285.3323690591074 640.3584428091904 285.18988488268286 640.9129841153989 285.1798228666511 641.4675254216074 285.16976085061935 642.0083598176318 285.29270579982494 642.549194213656 285.41565074903053 643.0448883789882 285.66445709724906 643.5405825443202 285.9132634454676 643.9623267107809 286.2734705560505 644.3840708772416 286.6336776666334 644.7073532540605 287.08435028538935 645.0306356308796 287.5350229041453 645.2366670311269 288.0499679172974 645.4426984313742 288.5649129304495 645.5195043003871 289.1142017096388 645.5963101694 289.66349048882813 645.5394265464627 290.21519834439994 645.4825429235253 290.76690619997174 645.4825939208876 290.76668186275595 Z" fill="hsl(0, 0%, 0%)"></path><path d="M 729.9986001613103 292.83694959054344 Q 729.9986001613103 292.83694959054344 726.9069963256701 306.56650134555264 723.8153924900299 320.2960531005618 726.7856612637987 331.75021609841735 729.7559300375675 343.20437909627293 743.1493783112442 336.7334384070582 756.5428265849209 330.2624977178435 765.8384956865616 317.49313869951936 775.1341647882024 304.7237796811953 784.1068986022885 288.83560612918797 793.0796324163747 272.9474325771806 799.2923387671526 259.7027007583764 805.5050451179306 246.45796893957217 805.9572997973273 245.16912272876021 806.409554476724 243.88027651794826 806.6078350354085 243.55788467155753 806.806115594093 243.23549282516677 807.0757899418364 242.9699228179359 807.3454642895799 242.70435281070502 807.6708589406209 242.51103958393202 807.9962535916618 242.31772635715902 808.3584565935932 242.2079052846667 808.7206595955246 242.0980842121744 809.0986196928561 242.078138099856 809.4765797901877 242.05819198753758 809.848329924304 242.12928010437815 810.2200800584204 242.20036822121872 810.5640140940602 242.35835892252743 810.9079481296999 242.51634962383616 811.204076604552 242.75206048262982 811.500205079404 242.9877713414235 811.7313169925965 243.2875028315142 811.962428905789 243.58723432160485 812.1150920220684 243.93356603470565 812.2677551383478 244.27989774780644 812.3330966702231 244.6527008684796 812.3984382020984 245.02550398915278 812.3726604966669 245.40311118250872 812.3468827912354 245.7807183758647 812.2314840499481 246.14118309408377 812.1160853086608 246.50164781230285 808.8565628624576 259.21862310547306 805.5970404162545 271.93559839864326 799.1609079449499 288.03220406126866 792.7247754736454 304.128809723894 788.6732591189743 322.18989053256314 784.6217427643031 340.25097134123234 781.6916194033267 355.79802519989363 778.7614960423502 371.3450790585549 777.5449828176753 381.31578310651116 776.3284695930004 391.28648715446747 776.8135875341932 400.11400895150126 777.298705475386 408.94153074853506 777.2021838930867 409.53016046174406 777.1056623107875 410.11879017495306 776.8262375074414 410.64578460983546 776.5468127040953 411.17277904471786 776.1137405303737 411.5829617448285 775.680668356652 411.9931444449391 775.1392915834633 412.2435691732986 774.5979148102747 412.4939939016582 774.0049157286816 412.5584411231017 773.4119166470884 412.6228883445452 772.8293824174702 412.4946104179751 772.246848187852 412.366332491405 771.7357702978238 412.0587601495953 771.2246924077955 411.7511878077856 770.8385808473546 411.2965239561149 770.4524692869137 410.8418601044443 770.231750038362 410.28770816820224 770.0110307898102 409.7335562319602 769.9788132167353 409.1379360651532 769.9465956436602 408.5423158983462 770.1062529344674 407.9675890896674 770.2659102252746 407.3928622809886 770.6007262194712 406.89920287901975 770.9355422136678 406.4055434770509 771.4104615882784 406.0446377514917 771.8853809628891 405.6837320259324 772.4506795340257 405.4933669015186 773.0159781051622 405.30300177710484 773.6124689632022 405.30310853261415 774.2089598212422 405.3032152881235 774.7741902158906 405.493782746226 775.339420610539 405.6843502043284 775.8142107702699 406.04542590185565 776.2890009300007 406.4065015993829 776.6236401997578 406.9002808154892 776.9582794695148 407.39406003159553 777.1177310294181 407.9688439520095 777.2771825893215 408.54362787242343 777.2447518189583 409.13923646894943 777.2123210485951 409.7348450654755 776.9914034581832 410.2889179608319 776.7704858677713 410.84299085618835 776.3842115873434 411.2975164719703 775.9979373069156 411.7520420877523 775.486749355599 412.05943147200435 774.9755614042825 412.36682085625637 774.3929812955207 412.4948902593044 773.8104011867588 412.62295966235234 773.2174252117252 412.55830018389014 772.6244492366916 412.49364070542794 772.0831621365028 412.243022209919 771.5418750363139 411.99240371441 771.1089497132455 411.58206602449087 770.676024390177 411.17172833457175 770.3967882398354 410.6446339146957 770.1175520894939 410.11753949481965 770.0212412105311 409.52887526988707 769.9249303315684 408.9402110449545 769.9249302325907 408.9407640780944 769.9249301336129 408.94131711123435 770.4293996100308 399.81359746892804 770.9338690864488 390.6858778266217 771.9748186311956 380.5018861651306 773.0157681759424 370.3178945036394 775.676989413754 354.6141548795119 778.3382106515654 338.91041525538435 782.1249037877965 320.2350697657174 785.9115969240274 301.55972427605053 791.6582094474242 285.5183745306849 797.4048219708209 269.47702478531926 801.9071227037566 256.6787933214574 806.4094234366925 243.88056185759552 806.607671755201 243.5581501847609 806.8059200737094 243.2357385119263 807.0755678631039 242.9701415385885 807.3452156524983 242.70454456525076 807.6705909705896 242.51119879997927 807.995966288681 242.31785303470778 808.3581583066941 242.20799574246445 808.7203503247073 242.09813845022114 809.0983084255378 242.07815454199277 809.4762665263682 242.05817063376443 809.8480237674376 242.12922157523622 810.2197810085069 242.200272516708 810.5637308414971 242.35822882382325 810.9076806744872 242.51618513093854 811.2038327189446 242.7518663757062 811.4999847634018 242.98754762047386 811.7311266485876 243.28725599787458 811.9622685337736 243.58696437527533 812.114966282461 243.93328082033287 812.2676640311482 244.2795972653904 812.3330428430088 244.6523938500464 812.3984216548694 245.02519043470238 812.3726817102861 245.40280020394084 812.3469417657028 245.78040997317927 812.2315790714642 246.14088622947014 812.1162163772256 246.501362485761 811.3589614881223 247.65016298393374 810.601706599019 248.79896348210647 804.508305339052 262.3472465846386 798.414904079085 275.89552968717067 789.5477216589235 292.27714747516575 780.680539238762 308.65876526316083 771.0599013126409 322.51167807819286 761.4392633865198 336.36459089322494 746.9436465780179 344.54383358460586 732.4480297695161 352.7230762759868 725.220519783979 344.75842039358156 717.9930097984418 336.79376451117633 717.2558612970281 327.84810124974086 716.5187127956145 318.9024379883054 718.9518287780896 305.008330136381 721.3849447605647 291.11422228445656 721.5505951417167 290.6113761590437 721.7162455228688 290.1085300336308 721.9974248102358 289.65994059664604 722.2786040976029 289.2113511596612 722.6589701377918 288.8430904502589 723.0393361779808 288.4748297408566 723.4967820788646 288.2083010887699 723.9542279797485 287.9417724366832 724.4621669640746 287.7924664996942 724.9701059484009 287.6431605627052 725.4990165785352 287.61975500888684 726.0279272086694 287.59634945506843 726.5470691739375 287.70020461630827 727.0662111392056 287.8040597775481 727.5454118841944 288.0291395869953 728.0246126291831 288.2542193964425 728.4360209840786 288.5874422049967 728.8474293389742 288.92066501355083 729.16713423086 289.3426638959224 729.4868391227458 289.76466277829394 729.6962592882842 290.2509111396119 729.9056794538227 290.73715950092986 729.9926433831531 291.25939656358815 730.0796073124835 291.78163362624645 730.0390606579472 292.30950694762623 729.998514003411 292.83738026900596 729.9985570823605 292.8371649297747 Z" fill="hsl(0, 0%, 0%)"></path><path d="M 825.3288866874825 290.26945663620637 Q 825.3288866874825 290.26945663620637 822.1237998150758 298.39328441408895 818.9187129426691 306.51711219197153 820.7278690869307 322.56249077308485 822.5370252311923 338.6078693541982 830.7329509578515 334.6571501084047 838.9288766845108 330.70643086261117 847.8852608569888 323.888911171634 856.8416450294668 317.0713914806568 862.2555359319042 308.73358688640747 867.6694268343417 300.39578229215806 870.1259239634269 295.73273689188164 872.5824210925122 291.0696914916052 872.8769034764368 290.67484079352676 873.1713858603614 290.27999009544834 873.5518074854476 289.96709021468496 873.9322291105337 289.6541903339215 874.3764798540574 289.4414270262447 874.8207305975811 289.2286637185678 875.3029905854557 289.12840279741636 875.7852505733304 289.0281418762649 876.2774908324018 289.0462105110869 876.7697310914731 289.06427914590887 877.2433425947561 289.1996271867995 877.7169540980392 289.33497522769005 878.1444105227106 289.57973624015347 878.5718669473821 289.8244972526168 878.928324505956 290.16444571510857 879.2847820645298 290.5043941776003 879.5495234269538 290.919772269508 879.8142647893778 291.33515036141563 879.971903175229 291.8018162885211 880.1295415610803 292.26848221562653 880.1709150199663 292.75931333232023 880.2122884788524 293.25014444901393 880.1349923833991 293.736613627732 880.0576962879456 294.22308280645007 879.8662230908524 294.6769164356688 879.674749893759 295.1307500648874 874.7440075733301 307.4325888282829 869.8132652529013 319.7344275916784 867.9734595806169 344.75125839985907 866.1336539083325 369.7680892080397 865.955099419051 387.0028047868411 865.7765449297694 404.2375203656426 864.5485984489658 421.06650055578956 863.3206519681621 437.89548074593654 858.7327491346334 449.9923548830991 854.1448463011048 462.08922902026166 849.0533209260643 474.37922400447644 843.9617955510238 486.66921898869117 835.9264545705339 495.38834673291706 827.891113590044 504.1074744771429 818.984484469946 510.1959872261028 810.077855349848 516.2844999750627 809.7444691676878 516.4711724382995 809.4110829855276 516.6578449015364 809.0427099748945 516.7593056329714 808.6743369642613 516.8607663644065 808.2923869818412 516.8711184615617 807.910436999421 516.8814705587168 807.5371089961379 516.8001123572192 807.1637809928548 516.7187541557214 806.8207728098004 516.5504141980643 806.477764626746 516.3820742404073 806.1850119156354 516.1365364528394 805.892259204525 515.8909986652715 805.6667767666831 515.5825337155427 805.4412943288412 515.274068765814 805.2961872141495 514.9206046512959 805.1510800994579 514.5671405367776 805.0947819402402 514.1892206084132 805.0384837810225 513.8113006800487 805.0742666289375 513.4308896618311 805.1100494768526 513.0504786436135 805.2358336310986 512.6896860417951 805.3616177853444 512.3288934399766 805.5700926649663 512.0086885375267 805.7785675445881 511.68848363507686 806.0576165797872 511.4274767559708 806.3366656149865 511.1664698768647 809.7674835594363 496.51959392611144 813.1983015038861 481.87271797535817 832.7227583064542 441.84896238724 852.2472151090224 401.8252067991219 868.0213393359645 378.163506158733 883.7954635629068 354.50180551834416 897.3002488088821 338.2030885016459 910.8050340548573 321.90437148494755 915.2650713264538 317.1151590769856 919.7251085980504 312.3259466690236 920.1000558412088 312.0551187220927 920.4750030843674 311.78429077516176 920.9168002227223 311.6473656111764 921.358597361077 311.510440447191 921.8209881176194 311.52175416696525 922.2833788741618 311.53306788673945 922.7179508146224 311.69143594082635 923.152522755083 311.84980399491326 923.5137760825799 312.13864520624486 923.8750294100766 312.4274864175764 924.125140805859 312.81655903507954 924.3752522016414 313.2056316525827 924.4880349365479 313.6541996704997 924.6008176714545 314.1027676884167 924.5644633633688 314.5638659168611 924.5281090552832 315.0249641453055 924.3464240098583 315.45031547804115 924.1647389644336 315.87566681077675 923.8567456538859 316.2207368509843 923.5487523433383 316.56580689119187 923.1466977485843 316.79446671457197 922.7446431538305 317.0231265379521 922.2906224970732 317.11143540063654 921.8366018403158 317.199744263321 921.3781512041674 317.13845620407545 920.9197005680189 317.0771681448299 920.5048198551034 316.87270003963584 920.0899391421879 316.6682319344418 919.7620664726653 316.3419916478873 919.4341938031428 316.0157513613329 919.2276575320622 315.6018963375394 919.0211212609815 315.18804131374594 918.9575457904454 314.7299022829517 918.8939703199092 314.2717632521575 918.9800120184648 313.8173074918236 919.0660537170205 313.36285173148974 919.2927039961164 312.9596608796879 919.5193542752123 312.556470027886 919.8628827907974 312.2467582732319 920.2064113063823 311.9370465185777 920.6308505321917 311.75324076353945 921.0552897580013 311.5694350085012 921.5162007950521 311.5307797641515 921.9771118321029 311.4921245198017 922.426237173147 311.6026670004278 922.8753625141911 311.7132094810539 923.2656786174637 311.96137585975396 923.6559947207362 312.209542238454 923.9466353871911 312.56934942986857 924.237276053646 312.9291566212831 924.3978111287838 313.3629327174911 924.5583462039216 313.7967088136991 924.571967622998 314.25903734292194 924.5855890420746 314.7213658721447 924.450870638917 315.16384091532973 924.3161522357592 315.6063159585148 924.0471990627401 315.98261026183854 923.778245889721 316.35890456516233 923.7785483615655 316.35860057986315 923.7788508334099 316.358296594564 919.1716557936454 320.6844197247135 914.5644607538809 325.01054285486305 901.2847166933609 341.15555829177185 888.004972632841 357.3005737286806 872.5111729338832 380.7248053457172 857.0173732349256 404.14903696275377 837.7936172765238 443.9072340376214 818.5698613181221 483.665431112489 814.323986275384 499.9748720012377 810.0781112326459 516.2843128899865 809.7447437193989 516.4710186909082 809.411376206152 516.6577244918299 809.0430133434338 516.7592220600586 808.6746504807156 516.8607196282874 808.292701535415 516.871109920389 807.9107525901143 516.8815002124906 807.5374164528777 516.8001793441999 807.1640803156411 516.7188584759092 806.8210553003059 516.5505528199121 806.4780302849708 516.382247163915 806.1852530215453 516.1367386528459 805.89247575812 515.8912301417768 805.6669624749106 515.5827877418341 805.4414491917012 515.2743453418914 805.2963067313236 514.9208957398519 805.1511642709461 514.5674461378125 805.0948283200171 514.1895318411536 805.0384923690881 513.8116175444947 805.0742371757226 513.4312029498943 805.109981982357 513.050788355294 805.2357300567138 512.6899831768641 805.3614781310706 512.3291779984341 805.56992098916 512.0089522500974 805.7783638472492 511.68872650176064 806.0573867803653 511.42769171905616 806.3364097134813 511.1666569363516 815.3455570640308 505.98666909529186 824.3547044145802 500.8066812542321 831.8737837766253 492.7432970753272 839.3928631386704 484.6799128964223 844.3211662339719 472.4614125151837 849.2494693292734 460.2429121339452 853.5199768392963 448.8516104497405 857.7904843493191 437.46030876553584 858.77265727301 420.84601102828293 859.754830196701 404.23171329103 859.6049322391841 386.77960698822585 859.4550342816672 369.32750068542174 860.9865852875723 343.3473566241096 862.5181362934776 317.3672125627974 867.5501771842618 304.2186293455733 872.582218075046 291.0700461283491 872.8766609724285 290.6751659840065 873.1711038698108 290.28028583966403 873.551494203007 289.96734791830266 873.931884536203 289.6544099969413 874.3761140011748 289.441602265254 874.8203434661465 289.2287945335667 875.3025934255177 289.1284853869179 875.7848433848889 289.028176240269 876.2770854483625 289.0461956509748 876.7693275118362 289.0642150616806 877.2429525475552 289.19951574074423 877.7165775832743 289.33481641980785 878.1440584819096 289.57953468540506 878.5715393805449 289.8242529510022 878.9280309321828 290.1641657660384 879.2845224838205 290.5040785810746 879.5493053827299 290.9194301967692 879.8140882816393 291.33478181246375 879.971773333295 291.8014319733973 880.1294583849507 292.2680821343309 880.1708809267415 292.7589091112245 880.2123034685322 293.24973608811814 880.1350560203832 293.7362129940134 880.0578085722341 294.2226898999087 879.866380759461 294.6765426741779 879.6749529466878 295.1303954484471 876.4731482281077 299.5252597831695 873.2713435095275 303.9201241178919 867.4846580705719 313.38413381867974 861.6979726316162 322.84814351946756 852.8806875328928 330.460789986941 844.0634024341695 338.07343645441443 830.0189493911653 339.45685010059196 815.9744963481612 340.84026374676944 813.4206523533808 322.3680897086733 810.8668083586003 303.89591567057727 813.1864413043089 295.44555373593545 815.5060742500175 286.99519180129363 815.7733388697588 286.43127279254156 816.0406034895003 285.86735378378955 816.4350602570821 285.3837848808332 816.8295170246639 284.90021597787694 817.3282400942207 284.52510222807655 817.8269631637775 284.1499884782762 818.4009667270742 283.9051315103949 818.974970290371 283.6602745425135 819.5908932333394 283.5599054550289 820.2068161763079 283.45953636754433 820.8288610285638 283.50948861653706 821.4509058808196 283.5594408655297 822.0429193663231 283.7568112239412 822.6349328518265 283.95418158235265 823.1625071189845 284.2874988756786 823.6900813861425 284.62081616900457 824.1225537937598 285.0707079804961 824.5550262013771 285.5205997919876 824.8672614328034 286.0609183884227 825.1794966642296 286.6012369848578 825.3533475931441 287.20057902402493 825.5271985220586 287.799921063192 825.5525609243043 288.42345275761477 825.5779233265501 289.0469844520376 825.4533231381171 289.65846611033965 825.328722949684 290.26994776864177 825.3288048185832 290.26970220242407 Z" fill="hsl(0, 0%, 0%)"></path><path d="M 951.7333491452401 285.10334426242764 Q 951.7333491452401 285.10334426242764 948.059547066305 288.6226465106639 944.3857449873699 292.1419487589001 942.8436153432528 300.8176881713724 941.3014856991357 309.4934275838447 937.2110113390593 325.17083425329395 933.120536978983 340.8482409227432 928.7358916623698 348.5030022167333 924.3512463457565 356.1577635107234 921.3650410661077 365.95981382974645 918.3788357864588 375.7618641487695 914.5828445657359 373.4630204282571 910.7868533450129 371.1641767077447 911.249150038961 370.5273136271744 911.711446732909 369.8904505466041 912.3528997333794 369.43454390614306 912.9943527338497 368.9786372656821 913.7478017423659 368.75142061093436 914.5012507508823 368.5242039561867 915.2878094573614 368.5494669308837 916.0743681638406 368.57472990558074 916.8116836640831 368.84982746960293 917.5489991643258 369.12492503362506 918.1598743308239 369.6210543994006 918.7707494973218 370.1171837651761 919.1912255388877 370.7824000571428 919.6117015804535 371.4476163491095 919.7977545445403 372.2122712458985 919.983807508627 372.9769261426875 919.9159576007817 373.76096007475564 919.8481076929363 374.54499400682374 919.5334588164208 375.26631841451865 919.2188099399053 375.9876428222135 918.6903059151502 376.57073484963837 918.161801890395 377.1538268770632 917.4747772283035 377.53763663502525 916.787752566212 377.9214463929873 916.0141389302621 378.06578889851204 915.2405252943122 378.21013140403676 914.4613202364019 378.099893958693 913.6821151784917 377.98965651334925 912.9789016738745 377.63638100676434 912.2756881692573 377.28310550017943 911.7220928574968 376.7237799711485 911.1684975457365 376.1644544421176 910.8224820021092 375.45764042117776 910.4764664584819 374.7508264002379 910.3742586017447 373.97052750196235 910.2720507450075 373.1902286036868 910.424351764741 372.41814232870394 910.5766527844745 371.64605605372105 910.9675167237092 370.9630200388325 911.3583806629438 370.27998402394394 911.9468839640635 369.7575123202125 912.5353872651832 369.2350406164812 913.2599134772111 368.92783614920677 913.984439689239 368.62063168193237 914.7691307265193 368.5608588399326 915.5538217637996 368.50108599793293 916.3165202675909 368.6950030135438 917.0792187713821 368.8889200291547 917.7400700070045 369.31622373965257 918.4009212426269 369.74352745015045 918.8907339112628 370.3594790442489 919.3805465798988 370.97543063834746 919.6480371658442 371.7155398215491 919.9155277517898 372.4556490047507 919.9326899200856 373.2424261502043 919.9498520883815 374.029203295658 919.7148889554767 374.78027262854573 919.4799258225719 375.53134196143344 919.4802533599684 375.53068998099275 919.4805808973648 375.53003800055205 915.9881857264622 370.9488075617847 912.4957905555596 366.3675771230173 918.2419151895206 352.4932919740328 923.9880398234816 338.6190068250482 926.5745388805585 322.0543411356664 929.1610379376356 305.4896754462846 932.1143550627794 295.23987936542073 935.0676721879231 284.9900832845569 939.1285262674353 280.77472937434584 943.1893803469474 276.55937546413486 943.7626446758479 276.1102551022326 944.3359090047486 275.6611347403303 944.9999991509171 275.36226124196196 945.6640892970858 275.06338774359364 946.3804083100249 274.9321316505269 947.0967273229639 274.80087555746024 947.8236427079853 274.84486547999126 948.5505580930068 274.88885540252227 949.2458214937792 275.1055346442866 949.9410848945515 275.3222138860509 950.5642875695551 275.69898903933665 951.1874902445587 276.0757641926224 951.7024116250413 276.5907370678178 952.2173330055239 277.1057099430132 952.5940458366583 277.7289502924161 952.9707586677928 278.35219064181894 953.1873683821337 279.0474757070391 953.4039780964747 279.7427607722593 953.4478953272474 280.4696805526384 953.4918125580201 281.1966003330175 953.3604848337085 281.9129062167657 953.2291571093969 282.6292121005138 952.9302172035084 283.29327235601215 952.6312772976199 283.95733261151054 952.1820996115305 284.53055202550877 951.732921925441 285.10377143950694 951.7331355353406 285.10355785096726 Z" fill="hsl(0, 0%, 0%)"></path><path d="M 936.1718789483009 314.01723647959636 Q 936.1718789483009 314.01723647959636 942.3464664068387 320.60233662019584 948.5210538653764 327.1874367607953 953.5259510713715 334.45064035240273 958.5308482773665 341.7138439440102 967.2118934799973 352.1566893022696 975.8929386826281 362.59953466052906 977.8406517689209 365.11870447064587 979.7883648552138 367.63787428076273 980.4295273250921 367.19791308194124 981.0706897949705 366.75795188311974 981.8187719219775 366.54575315432635 982.5668540489845 366.3335544255329 983.3435314369482 366.3713354296873 984.1202088249119 366.4091164338417 984.8441631462894 366.6929214898357 985.5681174676669 366.9767265458297 986.1635505139046 367.47684118938355 986.7589835601424 367.97695583293734 987.1635533341203 368.6410179288534 987.5681231080982 369.30508002476944 987.7394710476847 370.06356209630997 987.9108189872711 370.82204416785044 987.83100491796 371.59553294190533 987.7511908486489 372.36902171596023 987.4285713245658 373.07653271370475 987.1059518004829 373.7840437114492 986.5743051709628 374.3515003446547 986.0426585414428 374.9189569778602 985.3576483489376 375.28694638723607 984.6726381564323 375.65493579661194 983.9059851489221 375.78492939385677 983.1393321414121 375.9149229911016 982.3713050911601 375.79331041226885 981.6032780409083 375.67169783343616 980.9142895828155 375.3112119476323 980.2253011247227 374.95072606182833 979.6874885322266 374.389109836456 979.1496759397304 373.8274936110836 978.8193483332341 373.12354841319154 978.4890207267376 372.4196032152995 978.4007634938391 371.64703229293053 978.3125062609406 370.87446137056156 978.4755599572222 370.1141531032266 978.6386136535039 369.35384483589166 979.0359065139228 368.6854036998826 979.4331993743418 368.0169625638736 980.0231347315371 367.51037452258197 980.6130700887325 367.00378648129026 981.333881555078 366.7120914363654 982.0546930214236 366.42039639144065 982.8309114461173 366.3741348910863 983.6071298708109 366.327873390732 984.3574849798855 366.53188902624714 985.1078400889601 366.7359046617623 985.7537695044209 367.1688369422535 986.3996989198818 367.6017692227448 986.8735736614212 368.21829002416166 987.3474484029608 368.8348108255786 987.5996536600492 369.5703702572671 987.8518589171375 370.30592968895564 987.8559887327817 371.0835144842492 987.8601185484258 371.8610992795427 987.6157405298378 372.59929610511153 987.3713625112498 373.3374929306804 986.9040631014852 373.95901238402246 986.4367636917207 374.58053183736456 986.4372843910413 374.5800332074481 986.437805090362 374.5795345775316 981.090818965633 374.05463201178844 975.7438328409041 373.5297294460453 969.0174697776425 366.6669998499128 962.2911067143809 359.80427025378043 952.0038994713773 347.1845039809896 941.7166922283736 334.5647377081988 934.6319037103489 328.9953997842231 927.5471151923241 323.4260618602474 927.0468367595288 322.84168031759435 926.5465583267334 322.2572987749413 926.20067401864 321.5701711717055 925.8547897105468 320.88304356846976 925.6834023393933 320.1331057932358 925.5120149682398 319.3831680180019 925.5250855760901 318.6140064895021 925.5381561839404 317.8448449610023 925.7349251064521 317.101163383412 925.9316940289639 316.3574818058216 926.3007250471155 315.68250298737195 926.6697560652673 315.0075241689223 927.189601078945 314.4404779102554 927.7094460926227 313.87343165158853 928.3498916852068 313.44727470790065 928.9903372777908 313.0211177642128 929.714160721349 312.76061839709405 930.4379841649072 312.5001190299752 931.2031168068912 312.42041747488196 931.9682494488752 312.3407159197887 932.7302217441834 312.4464444348477 933.4921940394914 312.5521729499067 934.2067201225193 312.83718658885516 934.921246205547 313.12220022780366 935.5467977867771 313.5699339845546 936.1723493680072 314.0176677413055 936.172114158154 314.0174521104509 Z" fill="hsl(0, 0%, 0%)"></path><path d="M 933.4329704420436 315.57519034956306 Q 933.4329704420436 315.57519034956306 939.5270819604209 309.40484165497895 945.6211934787981 303.23449296039485 954.075114279075 297.10310976744546 962.529035079352 290.9717265744961 971.6682496912001 286.77454436094285 980.8074643030484 282.5773621473896 990.840012194172 280.6120597048733 1000.8725600852957 278.64675726235697 1001.7557626944281 278.7877414731993 1002.6389653035606 278.9287256840416 1003.4309142831771 279.34434595564693 1004.2228632627938 279.7599662272523 1004.8406413456745 280.4067070074705 1005.4584194285552 281.05344778768875 1005.8373450863448 281.8635951461081 1006.2162707441346 282.67374250452735 1006.3166703604359 283.5624737988631 1006.4170699767373 284.45120509319884 1006.2284316852206 285.32546992233176 1006.039793393704 286.19973475146463 1005.581867673287 286.967997357001 1005.1239419528698 287.7362599625374 1004.4446737473604 288.318083046876 1003.7654055418511 288.89990613121455 1002.9359144116759 289.23437266383866 1002.1064232815005 289.56883919646276 1001.213557166953 289.6209304431161 1000.3206910524054 289.6730216897695 999.4579332713727 289.4372836831767 998.5951754903398 289.20154567658386 997.8528570102417 288.702660248264 997.1105385301435 288.20377481994416 996.5663802917994 287.4939754059352 996.0222220534554 286.7841759919263 995.7331975680638 285.93777877824397 995.4441730826723 285.09138156456163 995.4405432901488 284.19700456290553 995.4369134976253 283.30262756124944 995.7190584382051 282.45391227978564 996.0012033787851 281.6051969983218 996.5395824027107 280.8910041510585 997.0779614266364 280.17681130379526 997.8162061079845 279.67191707036966 998.5544507893325 279.1670228369441 999.4152667150881 278.92428977687496 1000.2760826408438 278.6815567168058 1001.169342156347 278.7263990455576 1002.0626016718504 278.7712413743095 1002.8947802700307 279.0989640882248 1003.7269588682108 279.4266868021401 1004.4109272301645 280.0029772465615 1005.0948955921182 280.57926769098293 1005.5590420497988 281.3437881042537 1006.0231885074794 282.1083085175244 1006.218916804245 282.98101341056116 1006.4146451010106 283.85371830359793 1006.3214624325226 284.7432352437281 1006.2282797640346 285.6327521838583 1005.8559423802815 286.4459485126406 1005.4836049965282 287.2591448414228 1004.8710967198765 287.91087868857073 1004.2585884432248 288.5626125357186 1003.4700390519263 288.9846471953947 1002.6814896606278 289.40668185507076 1001.7994604841084 289.5548301870006 1000.917431307589 289.7029785189305 1000.9182605241895 289.7029751535888 1000.9190897407899 289.7029717882471 998.1812379937624 289.3895567325219 995.4433862467349 289.0761416767967 981.6158682815369 293.36177889989756 967.788350316339 297.6474161229984 960.6790385628134 303.7831754332305 953.5697268092878 309.9189347434626 948.6143986914346 317.0079317672623 943.6590705735814 324.09692879106194 943.0749156103248 324.6468538918611 942.490760647068 325.19677899266026 941.791971442693 325.5909214611098 941.0931822383181 325.9850639295594 940.3203724542159 326.2005161868743 939.5475626701135 326.41596844418933 938.745648047246 326.4402083950516 937.9437334243786 326.46444834591387 937.159321278305 326.2960671632404 936.3749091322313 326.1276859805669 935.6535895337366 325.7764699866061 934.932269935242 325.42525399264525 934.3159660132819 324.91161587746785 933.6996620913218 324.3979777622904 933.2241934587975 323.7517701972837 932.7487248262731 323.10556263227693 932.4417257424468 322.3643432314811 932.1347266586205 321.62312383068524 932.0140399246683 320.8299723005005 931.8933531907161 320.0368207703158 931.9659931252859 319.2378351149426 932.0386330598557 318.4388494595694 932.3003778265372 317.68046676283825 932.5621225932188 316.92208406610706 932.9977595738744 316.24838156598435 933.4333965545302 315.5746790658617 933.4331834982869 315.5749347077124 Z" fill="hsl(0, 0%, 0%)"></path></svg>